# xmcd
#
# Track frame offsets: 
#        150
#        16457
#        36430
#        57977
#        90238
#        108002
#
# Disc length: 1661 seconds
#
# Revision: 0
# Processed by: cddbd v1.5.2PL0 Copyright (c) Steve Scherf et al.
# Submitted via: ExactAudioCopy v0.95b2
#
DISCID=3f067b06
DTITLE=Trampled Under Foot - The Philadelphia Sessions
DYEAR=2007
DGENRE=Blues
TTITLE0=Virginia Creeper
TTITLE1=Somethin' Ain't Right
TTITLE2=Hot Headed Woman
TTITLE3=I Just Wanna' Dance
TTITLE4=It's So Hard To Believe
TTITLE5=I Gotta' Go
EXTD=
EXTT0=
EXTT1=
EXTT2=
EXTT3=
EXTT4=
EXTT5=
PLAYORDER=
